<!DOCTYPE svg PUBLIC "-//W3C//DTD SVG 1.1//EN" "http://www.w3.org/Graphics/SVG/1.1/DTD/svg11.dtd">
<svg xmlns="http://www.w3.org/2000/svg" xmlns:xlink="http://www.w3.org/1999/xlink" xmlns:jfreesvg="http://www.jfree.org/jfreesvg/svg" width="800" height="600" text-rendering="auto" shape-rendering="auto">
<defs><clipPath id="_74701141171684clip-0"><path d="M 0 0 L 800 0 L 800 600 L 0 600 L 0 0 Z "/></clipPath>
<clipPath id="_74701141171684clip-1"><path d="M 277 231 L 277 1031 L -323 1031 L -323 231 L 277 231 Z "/></clipPath>
<clipPath id="_74701141171684clip-2"><path d="M 83 35 L 83 473 L 788 473 L 788 35 Z "/></clipPath>
</defs>
<rect x="0" y="0" width="800" height="600" style="fill: rgb(255,255,255); fill-opacity: 1.0" clip-path="url(#_74701141171684clip-0)"/><g ><text x="250.5" y="21.01" style="fill: rgb(0,0,0); fill-opacity: 1.0; font-family: Tahoma; font-size: 20px; font-weight: bold;" clip-path="url(#_74701141171684clip-0)">Быстродействие сортировок</text></g><rect x="1" y="539" width="798" height="60" style="fill: rgb(255,255,255); fill-opacity: 1.0" clip-path="url(#_74701141171684clip-0)"/><g style="stroke-width: 2.0;stroke: rgb(255,85,85);stroke-opacity: 1.0;stroke-linecap: square;shape-rendering:geometricPrecision;; fill: none" clip-path="url(#_74701141171684clip-0)"><path d="M 4 554 L 18 554"/></g><g ><text x="22" y="560.11" style="fill: rgb(64,64,64); fill-opacity: 1.0; font-family: Arial; font-size: 20px; font-weight: bold;" clip-path="url(#_74701141171684clip-0)">Встроенная (Arrays.sort)</text></g><g style="stroke-width: 2.0;stroke: rgb(85,85,255);stroke-opacity: 1.0;stroke-linecap: square;shape-rendering:geometricPrecision;; fill: none" clip-path="url(#_74701141171684clip-0)"><path d="M 271 554 L 285 554"/></g><g ><text x="289" y="560.11" style="fill: rgb(64,64,64); fill-opacity: 1.0; font-family: Arial; font-size: 20px; font-weight: bold;" clip-path="url(#_74701141171684clip-0)">Быстрая (QuickSort)</text></g><g style="stroke-width: 2.0;stroke: rgb(85,255,85);stroke-opacity: 1.0;stroke-linecap: square;shape-rendering:geometricPrecision;; fill: none" clip-path="url(#_74701141171684clip-0)"><path d="M 497 554 L 511 554"/></g><g ><text x="515" y="560.11" style="fill: rgb(64,64,64); fill-opacity: 1.0; font-family: Arial; font-size: 20px; font-weight: bold;" clip-path="url(#_74701141171684clip-0)">Пирамиальная (HeapSort)</text></g><g style="stroke-width: 2.0;stroke: rgb(255,255,85);stroke-opacity: 1.0;stroke-linecap: square;shape-rendering:geometricPrecision;; fill: none" clip-path="url(#_74701141171684clip-0)"><path d="M 4 584 L 18 584"/></g><g ><text x="22" y="590.11" style="fill: rgb(64,64,64); fill-opacity: 1.0; font-family: Arial; font-size: 20px; font-weight: bold;" clip-path="url(#_74701141171684clip-0)">Поразрядная (RadixSort)</text></g><rect x="83" y="35" width="705" height="438" style="fill: rgb(255,255,255); fill-opacity: 1.0" clip-path="url(#_74701141171684clip-0)"/><line x1="83" y1="477" x2="788" y2="477" style="stroke-width: 0.5;stroke: rgb(128,128,128);stroke-opacity: 1.0;stroke-linecap: square;shape-rendering:crispEdges;" clip-path="url(#_74701141171684clip-0)"/><g ><text x="150.26" y="500.11" style="fill: rgb(64,64,64); fill-opacity: 1.0; font-family: Arial; font-size: 20px; font-weight: bold;" clip-path="url(#_74701141171684clip-0)">200,000</text></g><line x1="186.26" y1="479" x2="186.26" y2="477" style="stroke-width: 0.5;stroke: rgb(128,128,128);stroke-opacity: 1.0;stroke-linecap: square;shape-rendering:crispEdges;" clip-path="url(#_74701141171684clip-0)"/><g ><text x="292.68" y="500.11" style="fill: rgb(64,64,64); fill-opacity: 1.0; font-family: Arial; font-size: 20px; font-weight: bold;" clip-path="url(#_74701141171684clip-0)">400,000</text></g><line x1="328.68" y1="479" x2="328.68" y2="477" style="stroke-width: 0.5;stroke: rgb(128,128,128);stroke-opacity: 1.0;stroke-linecap: square;shape-rendering:crispEdges;" clip-path="url(#_74701141171684clip-0)"/><g ><text x="435.11" y="500.11" style="fill: rgb(64,64,64); fill-opacity: 1.0; font-family: Arial; font-size: 20px; font-weight: bold;" clip-path="url(#_74701141171684clip-0)">600,000</text></g><line x1="471.11" y1="479" x2="471.11" y2="477" style="stroke-width: 0.5;stroke: rgb(128,128,128);stroke-opacity: 1.0;stroke-linecap: square;shape-rendering:crispEdges;" clip-path="url(#_74701141171684clip-0)"/><g ><text x="577.53" y="500.11" style="fill: rgb(64,64,64); fill-opacity: 1.0; font-family: Arial; font-size: 20px; font-weight: bold;" clip-path="url(#_74701141171684clip-0)">800,000</text></g><line x1="613.53" y1="479" x2="613.53" y2="477" style="stroke-width: 0.5;stroke: rgb(128,128,128);stroke-opacity: 1.0;stroke-linecap: square;shape-rendering:crispEdges;" clip-path="url(#_74701141171684clip-0)"/><g ><text x="711.45" y="500.11" style="fill: rgb(64,64,64); fill-opacity: 1.0; font-family: Arial; font-size: 20px; font-weight: bold;" clip-path="url(#_74701141171684clip-0)">1,000,000</text></g><line x1="755.95" y1="479" x2="755.95" y2="477" style="stroke-width: 0.5;stroke: rgb(128,128,128);stroke-opacity: 1.0;stroke-linecap: square;shape-rendering:crispEdges;" clip-path="url(#_74701141171684clip-0)"/><g ><text x="266.5" y="526.11" style="fill: rgb(64,64,64); fill-opacity: 1.0; font-family: Arial; font-size: 20px; font-weight: bold;" clip-path="url(#_74701141171684clip-0)">Размерность массива, элементов</text></g><line x1="79" y1="35" x2="79" y2="473" style="stroke-width: 0.5;stroke: rgb(128,128,128);stroke-opacity: 1.0;stroke-linecap: square;shape-rendering:crispEdges;" clip-path="url(#_74701141171684clip-0)"/><g ><text x="62" y="480.11" style="fill: rgb(64,64,64); fill-opacity: 1.0; font-family: Arial; font-size: 20px; font-weight: bold;" clip-path="url(#_74701141171684clip-0)">0</text></g><line x1="77" y1="473" x2="79" y2="473" style="stroke-width: 0.5;stroke: rgb(128,128,128);stroke-opacity: 1.0;stroke-linecap: square;shape-rendering:crispEdges;" clip-path="url(#_74701141171684clip-0)"/><g ><text x="40" y="427.67" style="fill: rgb(64,64,64); fill-opacity: 1.0; font-family: Arial; font-size: 20px; font-weight: bold;" clip-path="url(#_74701141171684clip-0)">100</text></g><line x1="77" y1="420.57" x2="79" y2="420.57" style="stroke-width: 0.5;stroke: rgb(128,128,128);stroke-opacity: 1.0;stroke-linecap: square;shape-rendering:crispEdges;" clip-path="url(#_74701141171684clip-0)"/><g ><text x="40" y="375.24" style="fill: rgb(64,64,64); fill-opacity: 1.0; font-family: Arial; font-size: 20px; font-weight: bold;" clip-path="url(#_74701141171684clip-0)">200</text></g><line x1="77" y1="368.13" x2="79" y2="368.13" style="stroke-width: 0.5;stroke: rgb(128,128,128);stroke-opacity: 1.0;stroke-linecap: square;shape-rendering:crispEdges;" clip-path="url(#_74701141171684clip-0)"/><g ><text x="40" y="322.8" style="fill: rgb(64,64,64); fill-opacity: 1.0; font-family: Arial; font-size: 20px; font-weight: bold;" clip-path="url(#_74701141171684clip-0)">300</text></g><line x1="77" y1="315.7" x2="79" y2="315.7" style="stroke-width: 0.5;stroke: rgb(128,128,128);stroke-opacity: 1.0;stroke-linecap: square;shape-rendering:crispEdges;" clip-path="url(#_74701141171684clip-0)"/><g ><text x="40" y="270.37" style="fill: rgb(64,64,64); fill-opacity: 1.0; font-family: Arial; font-size: 20px; font-weight: bold;" clip-path="url(#_74701141171684clip-0)">400</text></g><line x1="77" y1="263.26" x2="79" y2="263.26" style="stroke-width: 0.5;stroke: rgb(128,128,128);stroke-opacity: 1.0;stroke-linecap: square;shape-rendering:crispEdges;" clip-path="url(#_74701141171684clip-0)"/><g ><text x="40" y="217.94" style="fill: rgb(64,64,64); fill-opacity: 1.0; font-family: Arial; font-size: 20px; font-weight: bold;" clip-path="url(#_74701141171684clip-0)">500</text></g><line x1="77" y1="210.83" x2="79" y2="210.83" style="stroke-width: 0.5;stroke: rgb(128,128,128);stroke-opacity: 1.0;stroke-linecap: square;shape-rendering:crispEdges;" clip-path="url(#_74701141171684clip-0)"/><g ><text x="40" y="165.5" style="fill: rgb(64,64,64); fill-opacity: 1.0; font-family: Arial; font-size: 20px; font-weight: bold;" clip-path="url(#_74701141171684clip-0)">600</text></g><line x1="77" y1="158.39" x2="79" y2="158.39" style="stroke-width: 0.5;stroke: rgb(128,128,128);stroke-opacity: 1.0;stroke-linecap: square;shape-rendering:crispEdges;" clip-path="url(#_74701141171684clip-0)"/><g ><text x="40" y="113.07" style="fill: rgb(64,64,64); fill-opacity: 1.0; font-family: Arial; font-size: 20px; font-weight: bold;" clip-path="url(#_74701141171684clip-0)">700</text></g><line x1="77" y1="105.96" x2="79" y2="105.96" style="stroke-width: 0.5;stroke: rgb(128,128,128);stroke-opacity: 1.0;stroke-linecap: square;shape-rendering:crispEdges;" clip-path="url(#_74701141171684clip-0)"/><g ><text x="40" y="60.63" style="fill: rgb(64,64,64); fill-opacity: 1.0; font-family: Arial; font-size: 20px; font-weight: bold;" clip-path="url(#_74701141171684clip-0)">800</text></g><line x1="77" y1="53.53" x2="79" y2="53.53" style="stroke-width: 0.5;stroke: rgb(128,128,128);stroke-opacity: 1.0;stroke-linecap: square;shape-rendering:crispEdges;" clip-path="url(#_74701141171684clip-0)"/><g style="fill: rgb(64,64,64); fill-opacity: 1.0; stroke: none" transform="matrix(0,-1,1,0,-231,277)" clip-path="url(#_74701141171684clip-1)"><path d="M -91.53 246.79 L -85.81 246.79 Q -84.11 246.79 -83.28 246.94 Q -82.44 247.08 -81.78 247.53 Q -81.12 247.97 -80.69 248.72 Q -80.25 249.47 -80.25 250.39 Q -80.25 251.4 -80.8 252.25 Q -81.33 253.08 -82.25 253.5 Q -80.95 253.87 -80.25 254.79 Q -79.55 255.72 -79.55 256.95 Q -79.55 257.94 -80 258.86 Q -80.45 259.78 -81.23 260.34 Q -82.02 260.89 -83.17 261.01 Q -83.89 261.09 -86.66 261.11 L -91.53 261.11 L -91.53 246.79 Z  M -88.64 249.17 L -88.64 252.48 L -86.75 252.48 Q -85.06 252.48 -84.66 252.44 Q -83.91 252.34 -83.48 251.92 Q -83.06 251.5 -83.06 250.81 Q -83.06 250.14 -83.44 249.73 Q -83.8 249.31 -84.52 249.22 Q -84.94 249.17 -86.98 249.17 L -88.64 249.17 Z  M -88.64 254.87 L -88.64 258.7 L -85.97 258.7 Q -84.41 258.7 -83.98 258.61 Q -83.34 258.48 -82.94 258.03 Q -82.53 257.58 -82.53 256.83 Q -82.53 256.17 -82.84 255.73 Q -83.16 255.28 -83.75 255.08 Q -84.34 254.87 -86.31 254.87 L -88.64 254.87 Z  M -77.2 250.73 L -74.63 250.73 L -74.63 252.26 Q -74.13 251.48 -73.29 251 Q -72.45 250.5 -71.4 250.5 Q -69.6 250.5 -68.35 251.92 Q -67.09 253.33 -67.09 255.86 Q -67.09 258.47 -68.35 259.9 Q -69.62 261.34 -71.43 261.34 Q -72.29 261.34 -72.99 261 Q -73.68 260.65 -74.45 259.83 L -74.45 265.06 L -77.2 265.06 L -77.2 250.73 Z  M -74.48 255.75 Q -74.48 257.5 -73.79 258.34 Q -73.1 259.17 -72.1 259.17 Q -71.15 259.17 -70.51 258.4 Q -69.87 257.62 -69.87 255.89 Q -69.87 254.25 -70.53 253.47 Q -71.18 252.67 -72.15 252.67 Q -73.15 252.67 -73.82 253.45 Q -74.48 254.22 -74.48 255.75 Z  M -58.9 257.81 L -56.17 258.26 Q -56.68 259.76 -57.82 260.56 Q -58.96 261.34 -60.67 261.34 Q -63.39 261.34 -64.68 259.58 Q -65.7 258.15 -65.7 256 Q -65.7 253.42 -64.36 251.97 Q -63.01 250.5 -60.95 250.5 Q -58.64 250.5 -57.31 252.03 Q -55.96 253.56 -56.01 256.72 L -62.89 256.72 Q -62.86 257.94 -62.23 258.62 Q -61.59 259.29 -60.65 259.29 Q -60 259.29 -59.56 258.95 Q -59.12 258.59 -58.9 257.81 Z  M -58.75 255.03 Q -58.78 253.84 -59.37 253.23 Q -59.95 252.61 -60.78 252.61 Q -61.68 252.61 -62.26 253.25 Q -62.86 253.9 -62.84 255.03 L -58.75 255.03 Z  M -53.7 250.73 L -50.31 250.73 L -47.73 257.97 L -45.12 250.73 L -41.73 250.73 L -41.73 261.11 L -44.08 261.11 L -44.08 254.28 L -46.61 261.11 L -48.95 261.11 L -51.36 254.28 L -51.36 261.11 L -53.7 261.11 L -53.7 250.73 Z  M -30.09 250.73 L -30.09 261.11 L -32.83 261.11 L -32.83 256.79 L -33.08 256.79 Q -33.97 256.79 -34.39 257.03 Q -34.8 257.26 -35.3 258 L -35.47 258.2 L -37.28 261.11 L -40.47 261.11 L -38.5 258.09 Q -37.67 256.81 -36.98 256.61 Q -38.14 256.54 -38.86 255.75 Q -39.58 254.94 -39.58 253.69 Q -39.58 252.69 -39.11 251.97 Q -38.62 251.25 -37.84 251 Q -37.05 250.73 -35.5 250.73 L -30.09 250.73 Z  M -32.83 252.5 L -34.78 252.5 Q -35.88 252.5 -36.31 252.81 Q -36.75 253.12 -36.75 253.83 Q -36.75 254.54 -36.25 254.86 Q -35.75 255.17 -34.62 255.17 L -32.83 255.17 L -32.83 252.5 Z  M -21.73 250.73 L -15.73 250.73 Q -13.88 250.73 -12.96 251.4 Q -12.04 252.08 -12.04 253.44 Q -12.04 254.31 -12.55 254.95 Q -13.05 255.59 -13.8 255.81 Q -12.74 256.08 -12.21 256.81 Q -11.68 257.53 -11.68 258.39 Q -11.68 259.59 -12.57 260.36 Q -13.46 261.11 -15.2 261.11 L -21.73 261.11 L -21.73 250.73 Z  M -18.96 255.04 L -17.2 255.04 Q -15.91 255.04 -15.35 254.73 Q -14.77 254.4 -14.77 253.7 Q -14.77 253.04 -15.3 252.78 Q -15.84 252.5 -17.2 252.5 L -18.96 252.5 L -18.96 255.04 Z  M -18.96 259.34 L -16.8 259.34 Q -15.63 259.34 -15.1 259.06 Q -14.55 258.78 -14.55 258.04 Q -14.55 257.29 -15.18 257.01 Q -15.79 256.72 -17.55 256.72 L -18.96 256.72 L -18.96 259.34 Z  M -9.45 250.73 L -6.7 250.73 L -6.7 255.04 L -3.95 255.04 Q -2.32 255.04 -1.48 255.28 Q -0.62 255.5 -0.03 256.28 Q 0.57 257.04 0.57 258.09 Q 0.57 259.59 -0.48 260.36 Q -1.51 261.11 -3.57 261.11 L -9.45 261.11 L -9.45 250.73 Z  M -6.7 259.37 L -4.15 259.37 Q -3.15 259.37 -2.71 259.06 Q -2.26 258.75 -2.26 258.04 Q -2.26 257.29 -2.84 257.01 Q -3.42 256.73 -4.92 256.73 L -6.7 256.73 L -6.7 259.37 Z  M 2.13 250.73 L 4.87 250.73 L 4.87 261.11 L 2.13 261.11 L 2.13 250.73 Z  M 7.51 250.73 L 16.71 250.73 L 16.71 261.11 L 13.98 261.11 L 13.98 252.95 L 10.26 252.95 L 10.26 261.11 L 7.51 261.11 L 7.51 250.73 Z  M 19.06 255.78 Q 19.06 254.4 19.73 253.12 Q 20.42 251.84 21.65 251.17 Q 22.88 250.5 24.4 250.5 Q 26.76 250.5 28.26 252.03 Q 29.76 253.56 29.76 255.89 Q 29.76 258.25 28.24 259.79 Q 26.73 261.34 24.42 261.34 Q 22.99 261.34 21.7 260.7 Q 20.42 260.04 19.73 258.81 Q 19.06 257.56 19.06 255.78 Z  M 21.87 255.92 Q 21.87 257.47 22.6 258.29 Q 23.34 259.11 24.42 259.11 Q 25.49 259.11 26.21 258.29 Q 26.95 257.47 26.95 255.9 Q 26.95 254.37 26.21 253.56 Q 25.49 252.73 24.42 252.73 Q 23.34 252.73 22.6 253.56 Q 21.87 254.37 21.87 255.92 Z  M 32.65 250.73 L 41.85 250.73 L 41.85 261.11 L 39.12 261.11 L 39.12 252.97 L 35.37 252.97 L 35.37 257.62 Q 35.37 259.4 34.96 260.12 Q 34.55 260.83 34.05 261.06 Q 33.55 261.28 32.45 261.28 Q 31.79 261.28 30.73 261.11 L 30.73 259.09 Q 30.8 259.09 31.18 259.11 Q 31.62 259.14 31.85 259.14 Q 32.4 259.14 32.52 258.78 Q 32.65 258.4 32.65 256.73 L 32.65 250.73 Z  M 44.51 250.73 L 47.26 250.73 L 47.26 254.53 L 51.18 254.53 L 51.18 250.73 L 53.93 250.73 L 53.93 261.11 L 51.18 261.11 L 51.18 256.75 L 47.26 256.75 L 47.26 261.11 L 44.51 261.11 L 44.51 250.73 Z  M 62.7 257.81 L 65.43 258.26 Q 64.92 259.76 63.78 260.56 Q 62.64 261.34 60.93 261.34 Q 58.21 261.34 56.92 259.58 Q 55.9 258.15 55.9 256 Q 55.9 253.42 57.25 251.97 Q 58.59 250.5 60.65 250.5 Q 62.96 250.5 64.29 252.03 Q 65.64 253.56 65.59 256.72 L 58.71 256.72 Q 58.75 257.94 59.37 258.62 Q 60.01 259.29 60.95 259.29 Q 61.61 259.29 62.04 258.95 Q 62.48 258.59 62.7 257.81 Z  M 62.86 255.03 Q 62.82 253.84 62.23 253.23 Q 61.65 252.61 60.82 252.61 Q 59.92 252.61 59.34 253.25 Q 58.75 253.9 58.76 255.03 L 62.86 255.03 Z  M 67.71 250.73 L 70.46 250.73 L 70.46 254.53 L 74.38 254.53 L 74.38 250.73 L 77.13 250.73 L 77.13 261.11 L 74.38 261.11 L 74.38 256.75 L 70.46 256.75 L 70.46 261.11 L 67.71 261.11 L 67.71 250.73 Z  M 79.84 250.73 L 82.46 250.73 L 82.46 257.25 L 86.68 250.73 L 89.39 250.73 L 89.39 261.11 L 86.75 261.11 L 86.75 254.48 L 82.46 261.11 L 79.84 261.11 L 79.84 250.73 Z  M 101.09 250.73 L 101.09 261.11 L 98.35 261.11 L 98.35 256.79 L 98.1 256.79 Q 97.21 256.79 96.79 257.03 Q 96.38 257.26 95.88 258 L 95.71 258.2 L 93.9 261.11 L 90.71 261.11 L 92.68 258.09 Q 93.51 256.81 94.2 256.61 Q 93.04 256.54 92.32 255.75 Q 91.6 254.94 91.6 253.69 Q 91.6 252.69 92.07 251.97 Q 92.56 251.25 93.34 251 Q 94.13 250.73 95.68 250.73 L 101.09 250.73 Z  M 98.35 252.5 L 96.4 252.5 Q 95.31 252.5 94.87 252.81 Q 94.43 253.12 94.43 253.83 Q 94.43 254.54 94.93 254.86 Q 95.43 255.17 96.56 255.17 L 98.35 255.17 L 98.35 252.5 Z  M 103.8 258.36 L 106.54 258.36 L 106.54 260.33 Q 106.54 261.51 106.34 262.2 Q 106.13 262.89 105.55 263.44 Q 104.99 263.98 104.12 264.29 L 103.57 263.17 Q 104.4 262.89 104.74 262.4 Q 105.1 261.94 105.13 261.11 L 103.8 261.11 L 103.8 258.36 Z  M 115.06 250.73 L 118.45 250.73 L 121.03 257.97 L 123.64 250.73 L 127.03 250.73 L 127.03 261.11 L 124.68 261.11 L 124.68 254.28 L 122.15 261.11 L 119.81 261.11 L 117.4 254.28 L 117.4 261.11 L 115.06 261.11 L 115.06 250.73 Z  M 138.82 253.79 L 136.12 254.29 Q 135.98 253.48 135.49 253.08 Q 135.01 252.65 134.24 252.65 Q 133.21 252.65 132.6 253.37 Q 131.99 254.08 131.99 255.73 Q 131.99 257.58 132.6 258.34 Q 133.23 259.11 134.28 259.11 Q 135.06 259.11 135.56 258.67 Q 136.06 258.22 136.26 257.14 L 138.95 257.59 Q 138.54 259.45 137.34 260.4 Q 136.15 261.34 134.15 261.34 Q 131.87 261.34 130.51 259.9 Q 129.17 258.47 129.17 255.94 Q 129.17 253.36 130.53 251.94 Q 131.88 250.5 134.2 250.5 Q 136.09 250.5 137.2 251.33 Q 138.32 252.14 138.82 253.79 Z "/></g><line x1="186.26" y1="35" x2="186.26" y2="473" style="stroke-width: 0.5;stroke: rgb(0,0,0);stroke-opacity: 1.0;stroke-linejoin: bevel;stroke-dasharray: 2.0, 2.0;shape-rendering:crispEdges;" clip-path="url(#_74701141171684clip-2)"/><line x1="328.68" y1="35" x2="328.68" y2="473" style="stroke-width: 0.5;stroke: rgb(0,0,0);stroke-opacity: 1.0;stroke-linejoin: bevel;stroke-dasharray: 2.0, 2.0;shape-rendering:crispEdges;" clip-path="url(#_74701141171684clip-2)"/><line x1="471.11" y1="35" x2="471.11" y2="473" style="stroke-width: 0.5;stroke: rgb(0,0,0);stroke-opacity: 1.0;stroke-linejoin: bevel;stroke-dasharray: 2.0, 2.0;shape-rendering:crispEdges;" clip-path="url(#_74701141171684clip-2)"/><line x1="613.53" y1="35" x2="613.53" y2="473" style="stroke-width: 0.5;stroke: rgb(0,0,0);stroke-opacity: 1.0;stroke-linejoin: bevel;stroke-dasharray: 2.0, 2.0;shape-rendering:crispEdges;" clip-path="url(#_74701141171684clip-2)"/><line x1="755.95" y1="35" x2="755.95" y2="473" style="stroke-width: 0.5;stroke: rgb(0,0,0);stroke-opacity: 1.0;stroke-linejoin: bevel;stroke-dasharray: 2.0, 2.0;shape-rendering:crispEdges;" clip-path="url(#_74701141171684clip-2)"/><line x1="83" y1="473" x2="788" y2="473" style="stroke-width: 0.5;stroke: rgb(0,0,0);stroke-opacity: 1.0;stroke-linejoin: bevel;stroke-dasharray: 2.0, 2.0;shape-rendering:crispEdges;" clip-path="url(#_74701141171684clip-2)"/><line x1="83" y1="420.57" x2="788" y2="420.57" style="stroke-width: 0.5;stroke: rgb(0,0,0);stroke-opacity: 1.0;stroke-linejoin: bevel;stroke-dasharray: 2.0, 2.0;shape-rendering:crispEdges;" clip-path="url(#_74701141171684clip-2)"/><line x1="83" y1="368.13" x2="788" y2="368.13" style="stroke-width: 0.5;stroke: rgb(0,0,0);stroke-opacity: 1.0;stroke-linejoin: bevel;stroke-dasharray: 2.0, 2.0;shape-rendering:crispEdges;" clip-path="url(#_74701141171684clip-2)"/><line x1="83" y1="315.7" x2="788" y2="315.7" style="stroke-width: 0.5;stroke: rgb(0,0,0);stroke-opacity: 1.0;stroke-linejoin: bevel;stroke-dasharray: 2.0, 2.0;shape-rendering:crispEdges;" clip-path="url(#_74701141171684clip-2)"/><line x1="83" y1="263.26" x2="788" y2="263.26" style="stroke-width: 0.5;stroke: rgb(0,0,0);stroke-opacity: 1.0;stroke-linejoin: bevel;stroke-dasharray: 2.0, 2.0;shape-rendering:crispEdges;" clip-path="url(#_74701141171684clip-2)"/><line x1="83" y1="210.83" x2="788" y2="210.83" style="stroke-width: 0.5;stroke: rgb(0,0,0);stroke-opacity: 1.0;stroke-linejoin: bevel;stroke-dasharray: 2.0, 2.0;shape-rendering:crispEdges;" clip-path="url(#_74701141171684clip-2)"/><line x1="83" y1="158.39" x2="788" y2="158.39" style="stroke-width: 0.5;stroke: rgb(0,0,0);stroke-opacity: 1.0;stroke-linejoin: bevel;stroke-dasharray: 2.0, 2.0;shape-rendering:crispEdges;" clip-path="url(#_74701141171684clip-2)"/><line x1="83" y1="105.96" x2="788" y2="105.96" style="stroke-width: 0.5;stroke: rgb(0,0,0);stroke-opacity: 1.0;stroke-linejoin: bevel;stroke-dasharray: 2.0, 2.0;shape-rendering:crispEdges;" clip-path="url(#_74701141171684clip-2)"/><line x1="83" y1="53.53" x2="788" y2="53.53" style="stroke-width: 0.5;stroke: rgb(0,0,0);stroke-opacity: 1.0;stroke-linejoin: bevel;stroke-dasharray: 2.0, 2.0;shape-rendering:crispEdges;" clip-path="url(#_74701141171684clip-2)"/><line x1="115.05" y1="469.43" x2="186.26" y2="466.31" style="stroke-width: 2.0;stroke: rgb(255,255,85);stroke-opacity: 1.0;stroke-linecap: square;shape-rendering:geometricPrecision;" clip-path="url(#_74701141171684clip-2)"/><line x1="186.26" y1="466.31" x2="257.47" y2="461.48" style="stroke-width: 2.0;stroke: rgb(255,255,85);stroke-opacity: 1.0;stroke-linecap: square;shape-rendering:geometricPrecision;" clip-path="url(#_74701141171684clip-2)"/><line x1="257.47" y1="461.48" x2="328.68" y2="449.83" style="stroke-width: 2.0;stroke: rgb(255,255,85);stroke-opacity: 1.0;stroke-linecap: square;shape-rendering:geometricPrecision;" clip-path="url(#_74701141171684clip-2)"/><line x1="328.68" y1="449.83" x2="399.89" y2="424.69" style="stroke-width: 2.0;stroke: rgb(255,255,85);stroke-opacity: 1.0;stroke-linecap: square;shape-rendering:geometricPrecision;" clip-path="url(#_74701141171684clip-2)"/><line x1="399.89" y1="424.69" x2="471.11" y2="394.23" style="stroke-width: 2.0;stroke: rgb(255,255,85);stroke-opacity: 1.0;stroke-linecap: square;shape-rendering:geometricPrecision;" clip-path="url(#_74701141171684clip-2)"/><line x1="471.11" y1="394.23" x2="542.32" y2="367.68" style="stroke-width: 2.0;stroke: rgb(255,255,85);stroke-opacity: 1.0;stroke-linecap: square;shape-rendering:geometricPrecision;" clip-path="url(#_74701141171684clip-2)"/><line x1="542.32" y1="367.68" x2="613.53" y2="329.98" style="stroke-width: 2.0;stroke: rgb(255,255,85);stroke-opacity: 1.0;stroke-linecap: square;shape-rendering:geometricPrecision;" clip-path="url(#_74701141171684clip-2)"/><line x1="613.53" y1="329.98" x2="684.74" y2="297.26" style="stroke-width: 2.0;stroke: rgb(255,255,85);stroke-opacity: 1.0;stroke-linecap: square;shape-rendering:geometricPrecision;" clip-path="url(#_74701141171684clip-2)"/><line x1="684.74" y1="297.26" x2="755.95" y2="268.51" style="stroke-width: 2.0;stroke: rgb(255,255,85);stroke-opacity: 1.0;stroke-linecap: square;shape-rendering:geometricPrecision;" clip-path="url(#_74701141171684clip-2)"/><line x1="115.05" y1="461.16" x2="186.26" y2="445.46" style="stroke-width: 2.0;stroke: rgb(85,255,85);stroke-opacity: 1.0;stroke-linecap: square;shape-rendering:geometricPrecision;" clip-path="url(#_74701141171684clip-2)"/><line x1="186.26" y1="445.46" x2="257.47" y2="426.64" style="stroke-width: 2.0;stroke: rgb(85,255,85);stroke-opacity: 1.0;stroke-linecap: square;shape-rendering:geometricPrecision;" clip-path="url(#_74701141171684clip-2)"/><line x1="257.47" y1="426.64" x2="328.68" y2="391.32" style="stroke-width: 2.0;stroke: rgb(85,255,85);stroke-opacity: 1.0;stroke-linecap: square;shape-rendering:geometricPrecision;" clip-path="url(#_74701141171684clip-2)"/><line x1="328.68" y1="391.32" x2="399.89" y2="352.02" style="stroke-width: 2.0;stroke: rgb(85,255,85);stroke-opacity: 1.0;stroke-linecap: square;shape-rendering:geometricPrecision;" clip-path="url(#_74701141171684clip-2)"/><line x1="399.89" y1="352.02" x2="471.11" y2="304.9" style="stroke-width: 2.0;stroke: rgb(85,255,85);stroke-opacity: 1.0;stroke-linecap: square;shape-rendering:geometricPrecision;" clip-path="url(#_74701141171684clip-2)"/><line x1="471.11" y1="304.9" x2="542.32" y2="266.13" style="stroke-width: 2.0;stroke: rgb(85,255,85);stroke-opacity: 1.0;stroke-linecap: square;shape-rendering:geometricPrecision;" clip-path="url(#_74701141171684clip-2)"/><line x1="542.32" y1="266.13" x2="613.53" y2="208.97" style="stroke-width: 2.0;stroke: rgb(85,255,85);stroke-opacity: 1.0;stroke-linecap: square;shape-rendering:geometricPrecision;" clip-path="url(#_74701141171684clip-2)"/><line x1="613.53" y1="208.97" x2="684.74" y2="153.88" style="stroke-width: 2.0;stroke: rgb(85,255,85);stroke-opacity: 1.0;stroke-linecap: square;shape-rendering:geometricPrecision;" clip-path="url(#_74701141171684clip-2)"/><line x1="684.74" y1="153.88" x2="755.95" y2="55.86" style="stroke-width: 2.0;stroke: rgb(85,255,85);stroke-opacity: 1.0;stroke-linecap: square;shape-rendering:geometricPrecision;" clip-path="url(#_74701141171684clip-2)"/><line x1="115.05" y1="464.93" x2="186.26" y2="455.12" style="stroke-width: 2.0;stroke: rgb(85,85,255);stroke-opacity: 1.0;stroke-linecap: square;shape-rendering:geometricPrecision;" clip-path="url(#_74701141171684clip-2)"/><line x1="186.26" y1="455.12" x2="257.47" y2="444.82" style="stroke-width: 2.0;stroke: rgb(85,85,255);stroke-opacity: 1.0;stroke-linecap: square;shape-rendering:geometricPrecision;" clip-path="url(#_74701141171684clip-2)"/><line x1="257.47" y1="444.82" x2="328.68" y2="431.46" style="stroke-width: 2.0;stroke: rgb(85,85,255);stroke-opacity: 1.0;stroke-linecap: square;shape-rendering:geometricPrecision;" clip-path="url(#_74701141171684clip-2)"/><line x1="328.68" y1="431.46" x2="399.89" y2="420.45" style="stroke-width: 2.0;stroke: rgb(85,85,255);stroke-opacity: 1.0;stroke-linecap: square;shape-rendering:geometricPrecision;" clip-path="url(#_74701141171684clip-2)"/><line x1="399.89" y1="420.45" x2="471.11" y2="406.44" style="stroke-width: 2.0;stroke: rgb(85,85,255);stroke-opacity: 1.0;stroke-linecap: square;shape-rendering:geometricPrecision;" clip-path="url(#_74701141171684clip-2)"/><line x1="471.11" y1="406.44" x2="542.32" y2="391.52" style="stroke-width: 2.0;stroke: rgb(85,85,255);stroke-opacity: 1.0;stroke-linecap: square;shape-rendering:geometricPrecision;" clip-path="url(#_74701141171684clip-2)"/><line x1="542.32" y1="391.52" x2="613.53" y2="377.4" style="stroke-width: 2.0;stroke: rgb(85,85,255);stroke-opacity: 1.0;stroke-linecap: square;shape-rendering:geometricPrecision;" clip-path="url(#_74701141171684clip-2)"/><line x1="613.53" y1="377.4" x2="684.74" y2="363.45" style="stroke-width: 2.0;stroke: rgb(85,85,255);stroke-opacity: 1.0;stroke-linecap: square;shape-rendering:geometricPrecision;" clip-path="url(#_74701141171684clip-2)"/><line x1="684.74" y1="363.45" x2="755.95" y2="318.69" style="stroke-width: 2.0;stroke: rgb(85,85,255);stroke-opacity: 1.0;stroke-linecap: square;shape-rendering:geometricPrecision;" clip-path="url(#_74701141171684clip-2)"/><line x1="115.05" y1="463.95" x2="186.26" y2="453.76" style="stroke-width: 2.0;stroke: rgb(255,85,85);stroke-opacity: 1.0;stroke-linecap: square;shape-rendering:geometricPrecision;" clip-path="url(#_74701141171684clip-2)"/><line x1="186.26" y1="453.76" x2="257.47" y2="442.27" style="stroke-width: 2.0;stroke: rgb(255,85,85);stroke-opacity: 1.0;stroke-linecap: square;shape-rendering:geometricPrecision;" clip-path="url(#_74701141171684clip-2)"/><line x1="257.47" y1="442.27" x2="328.68" y2="428.26" style="stroke-width: 2.0;stroke: rgb(255,85,85);stroke-opacity: 1.0;stroke-linecap: square;shape-rendering:geometricPrecision;" clip-path="url(#_74701141171684clip-2)"/><line x1="328.68" y1="428.26" x2="399.89" y2="416.5" style="stroke-width: 2.0;stroke: rgb(255,85,85);stroke-opacity: 1.0;stroke-linecap: square;shape-rendering:geometricPrecision;" clip-path="url(#_74701141171684clip-2)"/><line x1="399.89" y1="416.5" x2="471.11" y2="402.6" style="stroke-width: 2.0;stroke: rgb(255,85,85);stroke-opacity: 1.0;stroke-linecap: square;shape-rendering:geometricPrecision;" clip-path="url(#_74701141171684clip-2)"/><line x1="471.11" y1="402.6" x2="542.32" y2="386.02" style="stroke-width: 2.0;stroke: rgb(255,85,85);stroke-opacity: 1.0;stroke-linecap: square;shape-rendering:geometricPrecision;" clip-path="url(#_74701141171684clip-2)"/><line x1="542.32" y1="386.02" x2="613.53" y2="370.74" style="stroke-width: 2.0;stroke: rgb(255,85,85);stroke-opacity: 1.0;stroke-linecap: square;shape-rendering:geometricPrecision;" clip-path="url(#_74701141171684clip-2)"/><line x1="613.53" y1="370.74" x2="684.74" y2="352.05" style="stroke-width: 2.0;stroke: rgb(255,85,85);stroke-opacity: 1.0;stroke-linecap: square;shape-rendering:geometricPrecision;" clip-path="url(#_74701141171684clip-2)"/><line x1="684.74" y1="352.05" x2="755.95" y2="334.04" style="stroke-width: 2.0;stroke: rgb(255,85,85);stroke-opacity: 1.0;stroke-linecap: square;shape-rendering:geometricPrecision;" clip-path="url(#_74701141171684clip-2)"/><rect x="83" y="35" width="705" height="438" style="stroke-width: 0.5;stroke: rgb(0,0,0);stroke-opacity: 1.0;stroke-linecap: round;stroke-linejoin: round;shape-rendering:crispEdges;; fill: none" clip-path="url(#_74701141171684clip-0)"/></svg>
